<svg width="18" height="16" viewBox="0 0 18 16" fill="none" xmlns="http://www.w3.org/2000/svg">
<path d="M8.86465 11.2012C8.88073 11.2217 8.90127 11.2383 8.92472 11.2498C8.94817 11.2612 8.97391 11.2671 9 11.2671C9.02609 11.2671 9.05183 11.2612 9.07528 11.2498C9.09873 11.2383 9.11927 11.2217 9.13535 11.2012L11.5416 8.15684C11.6297 8.04512 11.5502 7.87969 11.4062 7.87969H9.81426V0.609375C9.81426 0.514844 9.73691 0.4375 9.64238 0.4375H8.35332C8.25879 0.4375 8.18145 0.514844 8.18145 0.609375V7.87754H6.59375C6.4498 7.87754 6.37031 8.04297 6.4584 8.15469L8.86465 11.2012ZM16.8633 10.4492H15.5742C15.4797 10.4492 15.4023 10.5266 15.4023 10.6211V13.9297H2.59766V10.6211C2.59766 10.5266 2.52031 10.4492 2.42578 10.4492H1.13672C1.04219 10.4492 0.964844 10.5266 0.964844 10.6211V14.875C0.964844 15.2553 1.27207 15.5625 1.65234 15.5625H16.3477C16.7279 15.5625 17.0352 15.2553 17.0352 14.875V10.6211C17.0352 10.5266 16.9578 10.4492 16.8633 10.4492Z" fill="white" fill-opacity="0.5"/>
</svg>
